<svg xmlns="http://www.w3.org/2000/svg" style="display:none">
  <symbol id="icon-theme" viewBox="0 0 64 64">
    <path d="M47.526 4.128a193.239 193.239 0 0 0-30.988-.005 13.462 13.462 0 0 0-12.41 12.35 192.439 192.439 0 0 0-.005 30.99 13.462 13.462 0 0 0 12.35 12.41 192.446 192.446 0 0 0 30.99.004 13.461 13.461 0 0 0 12.41-12.35c.416-5.14.627-10.364.627-15.527a193 193 0 0 0-.623-15.462 13.462 13.462 0 0 0-12.35-12.41zm9.356 43.156a10.473 10.473 0 0 1-9.661 9.603 190.049 190.049 0 0 1-30.505-.005 10.474 10.474 0 0 1-9.603-9.66 189.453 189.453 0 0 1 .005-30.506 10.474 10.474 0 0 1 9.66-9.603 189.452 189.452 0 0 1 30.506.005 10.474 10.474 0 0 1 9.603 9.66 189.427 189.427 0 0 1-.005 30.506z"/><path d="M44.75 13.5h-25.5a1.5 1.5 0 0 0-1.5 1.5v17a5.757 5.757 0 0 0 5.75 5.75h2.75v7a5.75 5.75 0 0 0 11.5 0v-7h2.75A5.756 5.756 0 0 0 46.25 32V15a1.5 1.5 0 0 0-1.5-1.5zm-24 3h5.5v2.75a1.5 1.5 0 0 0 3 0V16.5h5.5v2.75a1.5 1.5 0 0 0 3 0V16.5h5.5v9.75h-22.5zM43.25 32a2.753 2.753 0 0 1-2.75 2.75h-4.25a1.5 1.5 0 0 0-1.5 1.5v8.5a2.75 2.75 0 0 1-5.5 0v-8.5a1.5 1.5 0 0 0-1.5-1.5H23.5A2.753 2.753 0 0 1 20.75 32v-2.75h22.5z"/>
  </symbol>
  <symbol id="icon-json" viewBox="0 0 100 100">
    <path d="M73.333 39.996v-6.66C73.333 25.975 67.363 20 60 20v6.67a6.67 6.67 0 016.667 6.666v6.66c0 4.006 1.803 7.559 4.6 10.004-2.797 2.444-4.6 5.992-4.6 10v6.666a6.67 6.67 0 01-6.67 6.667V80c7.359 0 13.336-5.967 13.336-13.334V60A6.669 6.669 0 0180 53.333v-6.67a6.666 6.666 0 01-6.667-6.667zM33.337 40v-6.667a6.67 6.67 0 016.67-6.667V20c-7.363 0-13.337 5.967-13.337 13.333L26.667 40A6.666 6.666 0 0120 46.666v6.667l.003.003a6.667 6.667 0 016.667 6.667v6.66C26.67 74.023 32.637 80 40.003 80v-6.67a6.666 6.666 0 01-6.666-6.667v-6.66c0-4.007-1.804-7.559-4.6-10.003 2.796-2.445 4.6-5.995 4.6-10z"></path>
  </symbol>
  <symbol id="icon-error" viewBox="0 0 512 512">
    <path d="M394.617 227.54a10.07 10.07 0 0 1-7.066-2.93 10.056 10.056 0 0 1-2.93-7.07c0-2.63 1.066-5.208 2.93-7.067a10.07 10.07 0 0 1 7.066-2.93c2.633 0 5.211 1.07 7.07 2.93s2.93 4.437 2.93 7.066c0 2.633-1.07 5.211-2.93 7.07s-4.437 2.93-7.07 2.93zm0 0"/><path d="M468.879 455.32H43.12c-15.566 0-29.504-8.047-37.285-21.523-7.781-13.48-7.781-29.574 0-43.05L218.719 22.022C226.5 8.547 240.437.5 256 .5s29.5 8.047 37.281 21.523l88.274 152.891c2.761 4.781 1.12 10.899-3.66 13.66-4.786 2.758-10.899 1.121-13.66-3.66l-88.27-152.89c-4.168-7.215-11.633-11.528-19.965-11.528s-15.797 4.313-19.965 11.527L23.156 400.743c-4.168 7.218-4.168 15.835 0 23.054 4.164 7.219 11.63 11.527 19.965 11.527H468.88c8.336 0 15.797-4.308 19.965-11.527s4.168-15.836 0-23.055l-85.332-147.8c-2.762-4.782-1.121-10.895 3.66-13.657 4.781-2.762 10.898-1.125 13.66 3.66l85.332 147.801c7.781 13.477 7.781 29.57 0 43.05-7.785 13.477-21.719 21.524-37.285 21.524zm0 0"/><path d="M256 303.027c-17.645 0-31.996-14.355-31.996-31.996V180.79c0-17.644 14.351-31.996 31.996-31.996s31.996 14.352 31.996 31.996v90.242c0 17.64-14.351 31.996-31.996 31.996zm0-134.234c-6.617 0-12 5.383-12 11.996v90.242c0 6.617 5.383 12 12 12s12-5.383 12-12V180.79c0-6.613-5.383-11.996-12-11.996zM256 391.02c-17.645 0-31.996-14.352-31.996-31.997 0-17.644 14.351-31.996 31.996-31.996s31.996 14.352 31.996 31.996c0 8.547-3.328 16.582-9.371 22.625-6.043 6.043-14.078 9.372-22.625 9.372zm0-43.997c-6.617 0-12 5.383-12 12 0 6.618 5.383 12 12 12 3.203 0 6.219-1.25 8.484-3.515a11.926 11.926 0 0 0 3.516-8.485c0-6.617-5.383-12-12-12zm0 0"/>
  </symbol>
</svg>