<svg xmlns="http://www.w3.org/2000/svg" style="display:none">
  <symbol id="icon-theme" viewBox="0 0 64 64">
    <path d="M47.526 4.128a193.239 193.239 0 0 0-30.988-.005 13.462 13.462 0 0 0-12.41 12.35 192.439 192.439 0 0 0-.005 30.99 13.462 13.462 0 0 0 12.35 12.41 192.446 192.446 0 0 0 30.99.004 13.461 13.461 0 0 0 12.41-12.35c.416-5.14.627-10.364.627-15.527a193 193 0 0 0-.623-15.462 13.462 13.462 0 0 0-12.35-12.41zm9.356 43.156a10.473 10.473 0 0 1-9.661 9.603 190.049 190.049 0 0 1-30.505-.005 10.474 10.474 0 0 1-9.603-9.66 189.453 189.453 0 0 1 .005-30.506 10.474 10.474 0 0 1 9.66-9.603 189.452 189.452 0 0 1 30.506.005 10.474 10.474 0 0 1 9.603 9.66 189.427 189.427 0 0 1-.005 30.506z"/><path d="M44.75 13.5h-25.5a1.5 1.5 0 0 0-1.5 1.5v17a5.757 5.757 0 0 0 5.75 5.75h2.75v7a5.75 5.75 0 0 0 11.5 0v-7h2.75A5.756 5.756 0 0 0 46.25 32V15a1.5 1.5 0 0 0-1.5-1.5zm-24 3h5.5v2.75a1.5 1.5 0 0 0 3 0V16.5h5.5v2.75a1.5 1.5 0 0 0 3 0V16.5h5.5v9.75h-22.5zM43.25 32a2.753 2.753 0 0 1-2.75 2.75h-4.25a1.5 1.5 0 0 0-1.5 1.5v8.5a2.75 2.75 0 0 1-5.5 0v-8.5a1.5 1.5 0 0 0-1.5-1.5H23.5A2.753 2.753 0 0 1 20.75 32v-2.75h22.5z"/>
  </symbol>
  <symbol id="icon-json" viewBox="0 0 100 100">
    <path d="M73.333 39.996v-6.66C73.333 25.975 67.363 20 60 20v6.67a6.67 6.67 0 016.667 6.666v6.66c0 4.006 1.803 7.559 4.6 10.004-2.797 2.444-4.6 5.992-4.6 10v6.666a6.67 6.67 0 01-6.67 6.667V80c7.359 0 13.336-5.967 13.336-13.334V60A6.669 6.669 0 0180 53.333v-6.67a6.666 6.666 0 01-6.667-6.667zM33.337 40v-6.667a6.67 6.67 0 016.67-6.667V20c-7.363 0-13.337 5.967-13.337 13.333L26.667 40A6.666 6.666 0 0120 46.666v6.667l.003.003a6.667 6.667 0 016.667 6.667v6.66C26.67 74.023 32.637 80 40.003 80v-6.67a6.666 6.666 0 01-6.666-6.667v-6.66c0-4.007-1.804-7.559-4.6-10.003 2.796-2.445 4.6-5.995 4.6-10z"></path>
  </symbol>
  <symbol id="icon-error" viewBox="0 0 512 512">
    <path d="M240.625 467.492h-.003c-66.386 0-122.241-3.115-165.759-6.932-26.825-2.353-43.621-30.123-33.337-55.01 28.526-69.035 63.745-137.231 105.061-203.371 28.123-45.021 55.272-82.968 78.23-112.824 16.011-20.822 47.334-20.828 63.346-.007 22.844 29.707 49.848 67.439 77.831 112.183 41.105 65.725 76.192 133.492 104.671 202.102 10.34 24.909-6.521 52.72-33.387 55.081-66.342 5.831-132.272 8.778-196.653 8.778z" fill="#dd636e"/><path d="M265.871 74.846c-7.79 2.048-15.082 6.933-20.474 14.644-21.061 30.12-45.964 68.407-71.76 113.828-37.902 66.727-70.211 135.528-96.374 205.169-8.552 22.75 3.3 47.889 23.914 54.174a1747.882 1747.882 0 0 1-26.313-2.101c-26.829-2.355-43.618-30.12-33.341-55.015C70.05 336.518 105.274 268.321 146.59 202.18c28.124-45.018 55.269-82.973 78.229-112.821 10.135-13.183 26.417-18.023 41.052-14.513z" fill="#da4a54"/><g fill="#dd636e"><path d="M441.838 272.061v-2.894c0-10.208 7.904-18.673 18.089-19.372l31.327-2.149c11.221-.77 20.746 8.125 20.746 19.372v7.192c0 11.247-9.526 20.142-20.746 19.372l-31.327-2.149c-10.184-.698-18.089-9.163-18.089-19.372zM417.664 178.948l-1.447-2.507c-5.104-8.841-2.491-20.124 5.979-25.821l26.055-17.524c9.333-6.277 22.029-3.337 27.653 6.403l3.596 6.229c5.624 9.74 1.821 22.206-8.281 27.15l-28.204 13.802c-9.169 4.488-20.247 1.109-25.351-7.732zM350.172 110.397l-2.507-1.447c-8.841-5.104-12.219-16.182-7.732-25.351l13.802-28.204c4.944-10.102 17.41-13.904 27.15-8.281l6.229 3.596c9.74 5.624 12.68 18.32 6.403 27.653l-17.524 26.055c-5.697 8.47-16.98 11.083-25.821 5.979z"/></g><g fill="#dd636e"><path d="M70.162 272.061v-2.894c0-10.208-7.904-18.673-18.089-19.372l-31.327-2.149C9.526 246.876 0 255.771 0 267.018v7.192c0 11.247 9.526 20.142 20.746 19.372l31.327-2.149c10.184-.698 18.089-9.163 18.089-19.372zM94.336 178.948l1.447-2.507c5.104-8.841 2.491-20.124-5.979-25.821l-26.055-17.524c-9.333-6.277-22.029-3.337-27.653 6.403l-3.596 6.229c-5.624 9.74-1.821 22.206 8.281 27.15l28.204 13.802c9.169 4.488 20.247 1.109 25.351-7.732zM161.828 110.397l2.507-1.447c8.841-5.104 12.219-16.182 7.732-25.351l-13.802-28.204c-4.944-10.102-17.41-13.904-27.15-8.281l-6.229 3.596c-9.74 5.624-12.68 18.32-6.403 27.653l17.524 26.055c5.697 8.47 16.98 11.083 25.821 5.979z"/></g><g fill="#fff"><path d="M244.901 180.12c7.47-.751 14.94-.751 22.41 0 9.451.951 16.686 8.844 17.035 18.336a1270.015 1270.015 0 0 1 0 93.147c-.348 9.492-7.584 17.386-17.035 18.336-7.47.751-14.94.751-22.41 0-9.451-.951-16.686-8.844-17.035-18.336a1270.015 1270.015 0 0 1 0-93.147c.349-9.493 7.584-17.386 17.035-18.336zM245.443 344.015c7.109-.34 14.218-.34 21.327 0 9.797.469 17.665 8.355 18.107 18.153.431 9.552.431 19.104 0 28.657-.442 9.798-8.31 17.684-18.107 18.153-7.109.34-14.218.34-21.327 0-9.797-.469-17.665-8.355-18.107-18.153a317.727 317.727 0 0 1 0-28.657c.442-9.798 8.31-17.684 18.107-18.153z"/></g>
  </symbol>
</svg>