<svg xmlns="http://www.w3.org/2000/svg" style="display:none">
  <symbol id="icon-theme" viewBox="0 0 64 64">
    <path d="M47.526 4.128a193.239 193.239 0 0 0-30.988-.005 13.462 13.462 0 0 0-12.41 12.35 192.439 192.439 0 0 0-.005 30.99 13.462 13.462 0 0 0 12.35 12.41 192.446 192.446 0 0 0 30.99.004 13.461 13.461 0 0 0 12.41-12.35c.416-5.14.627-10.364.627-15.527a193 193 0 0 0-.623-15.462 13.462 13.462 0 0 0-12.35-12.41zm9.356 43.156a10.473 10.473 0 0 1-9.661 9.603 190.049 190.049 0 0 1-30.505-.005 10.474 10.474 0 0 1-9.603-9.66 189.453 189.453 0 0 1 .005-30.506 10.474 10.474 0 0 1 9.66-9.603 189.452 189.452 0 0 1 30.506.005 10.474 10.474 0 0 1 9.603 9.66 189.427 189.427 0 0 1-.005 30.506z"/><path d="M44.75 13.5h-25.5a1.5 1.5 0 0 0-1.5 1.5v17a5.757 5.757 0 0 0 5.75 5.75h2.75v7a5.75 5.75 0 0 0 11.5 0v-7h2.75A5.756 5.756 0 0 0 46.25 32V15a1.5 1.5 0 0 0-1.5-1.5zm-24 3h5.5v2.75a1.5 1.5 0 0 0 3 0V16.5h5.5v2.75a1.5 1.5 0 0 0 3 0V16.5h5.5v9.75h-22.5zM43.25 32a2.753 2.753 0 0 1-2.75 2.75h-4.25a1.5 1.5 0 0 0-1.5 1.5v8.5a2.75 2.75 0 0 1-5.5 0v-8.5a1.5 1.5 0 0 0-1.5-1.5H23.5A2.753 2.753 0 0 1 20.75 32v-2.75h22.5z"/>
  </symbol>
  <symbol id="icon-json" viewBox="0 0 100 100">
    <path d="M73.333 39.996v-6.66C73.333 25.975 67.363 20 60 20v6.67a6.67 6.67 0 016.667 6.666v6.66c0 4.006 1.803 7.559 4.6 10.004-2.797 2.444-4.6 5.992-4.6 10v6.666a6.67 6.67 0 01-6.67 6.667V80c7.359 0 13.336-5.967 13.336-13.334V60A6.669 6.669 0 0180 53.333v-6.67a6.666 6.666 0 01-6.667-6.667zM33.337 40v-6.667a6.67 6.67 0 016.67-6.667V20c-7.363 0-13.337 5.967-13.337 13.333L26.667 40A6.666 6.666 0 0120 46.666v6.667l.003.003a6.667 6.667 0 016.667 6.667v6.66C26.67 74.023 32.637 80 40.003 80v-6.67a6.666 6.666 0 01-6.666-6.667v-6.66c0-4.007-1.804-7.559-4.6-10.003 2.796-2.445 4.6-5.995 4.6-10z"></path>
  </symbol>
  <symbol id="icon-error" viewBox="0 0 512 512">
    <path d="M394.617 227.54a10.07 10.07 0 0 1-7.066-2.93 10.056 10.056 0 0 1-2.93-7.07c0-2.63 1.066-5.208 2.93-7.067a10.07 10.07 0 0 1 7.066-2.93c2.633 0 5.211 1.07 7.07 2.93s2.93 4.437 2.93 7.066c0 2.633-1.07 5.211-2.93 7.07s-4.437 2.93-7.07 2.93zm0 0"/><path d="M468.879 455.32H43.12c-15.566 0-29.504-8.047-37.285-21.523-7.781-13.48-7.781-29.574 0-43.05L218.719 22.022C226.5 8.547 240.437.5 256 .5s29.5 8.047 37.281 21.523l88.274 152.891c2.761 4.781 1.12 10.899-3.66 13.66-4.786 2.758-10.899 1.121-13.66-3.66l-88.27-152.89c-4.168-7.215-11.633-11.528-19.965-11.528s-15.797 4.313-19.965 11.527L23.156 400.743c-4.168 7.218-4.168 15.835 0 23.054 4.164 7.219 11.63 11.527 19.965 11.527H468.88c8.336 0 15.797-4.308 19.965-11.527s4.168-15.836 0-23.055l-85.332-147.8c-2.762-4.782-1.121-10.895 3.66-13.657 4.781-2.762 10.898-1.125 13.66 3.66l85.332 147.801c7.781 13.477 7.781 29.57 0 43.05-7.785 13.477-21.719 21.524-37.285 21.524zm0 0"/><path d="M256 303.027c-17.645 0-31.996-14.355-31.996-31.996V180.79c0-17.644 14.351-31.996 31.996-31.996s31.996 14.352 31.996 31.996v90.242c0 17.64-14.351 31.996-31.996 31.996zm0-134.234c-6.617 0-12 5.383-12 11.996v90.242c0 6.617 5.383 12 12 12s12-5.383 12-12V180.79c0-6.613-5.383-11.996-12-11.996zM256 391.02c-17.645 0-31.996-14.352-31.996-31.997 0-17.644 14.351-31.996 31.996-31.996s31.996 14.352 31.996 31.996c0 8.547-3.328 16.582-9.371 22.625-6.043 6.043-14.078 9.372-22.625 9.372zm0-43.997c-6.617 0-12 5.383-12 12 0 6.618 5.383 12 12 12 3.203 0 6.219-1.25 8.484-3.515a11.926 11.926 0 0 0 3.516-8.485c0-6.617-5.383-12-12-12zm0 0"/>
  </symbol>
  <symbol id="icon-info" viewBox="0 0 512 512">
    <path d="M256 0C114.509 0 0 114.496 0 256c0 141.489 114.496 256 256 256 141.491 0 256-114.496 256-256C512 114.511 397.504 0 256 0zm0 476.279c-121.462 0-220.279-98.816-220.279-220.279S134.538 35.721 256 35.721 476.279 134.537 476.279 256 377.462 476.279 256 476.279z"/><path d="M256.006 213.397c-15.164 0-25.947 6.404-25.947 15.839v128.386c0 8.088 10.783 16.174 25.947 16.174 14.49 0 26.283-8.086 26.283-16.174V229.234c0-9.434-11.793-15.837-26.283-15.837zM256.006 134.208c-15.501 0-27.631 11.12-27.631 23.925 0 12.806 12.131 24.263 27.631 24.263 15.164 0 27.296-11.457 27.296-24.263 0-12.805-12.133-23.925-27.296-23.925z"/>
  </symbol>
  <symbol id="icon-github" viewBox="0 0 55.11 55.11">
    <path d="M18.549 29.909c-2.757 0-5 2.691-5 6s2.243 6 5 6 5-2.691 5-6-2.243-6-5-6zm0 10c-1.654 0-3-1.794-3-4s1.346-4 3-4 3 1.794 3 4-1.345 4-3 4zM37.549 29.909c-2.757 0-5 2.691-5 6s2.243 6 5 6 5-2.691 5-6-2.243-6-5-6zm0 10c-1.654 0-3-1.794-3-4s1.346-4 3-4 3 1.794 3 4-1.345 4-3 4z"/><path d="m39.075 24.909-.149.001c-.926.016-1.853.054-2.78.091-.844.034-1.688.068-2.531.085l-1.465.031c-2.543.053-5.178.107-7.751.097a106.068 106.068 0 0 1-3.522-.093c-1.598-.06-3.248-.124-4.886-.083-2.273.055-4.185.781-5.685 2.159-2.491 2.289-3.521 5.325-3.148 9.282.542 5.743 2.86 8.68 8.002 10.135 4.323 1.223 8.665 1.333 12.322 1.281l1.218.006c.411.003.822.007 1.233.007.507 0 1.014-.005 1.521-.021 3.595-.115 6.746-.652 9.632-1.644 3.169-1.088 5.279-3.166 6.269-6.175.756-2.3.978-4.479.679-6.662-.487-3.55-3.584-8.497-8.959-8.497zm6.381 14.535c-.795 2.417-2.437 4.022-5.019 4.908-2.695.925-5.654 1.428-9.046 1.536-.891.028-1.782.02-2.673.014l-1.249-.007c-3.525.05-7.688-.052-11.763-1.206-4.317-1.221-6.094-3.498-6.556-8.397-.31-3.292.511-5.785 2.509-7.622 1.133-1.04 2.606-1.589 4.38-1.633 1.576-.036 3.196.023 4.762.082 1.196.045 2.393.09 3.589.095 2.608.012 5.247-.044 7.802-.098l1.463-.03c.857-.018 1.714-.053 2.571-.087.911-.037 1.822-.074 2.733-.089l.108-.001c4.13 0 6.607 4.022 6.984 6.771.259 1.874.063 3.76-.595 5.764z"/><path d="M51.866 18.56c-.595-.819-.867-1.301-.782-2.176.177-1.843-.075-3.698-.319-5.491l-.016-.118a26.113 26.113 0 0 0-1.867-6.819l-.325-.754-1.477.314c-2.051.431-4.173.877-6.107 1.994-1.284.742-2.562 1.533-3.797 2.297-.827.512-1.654 1.024-2.486 1.523a.465.465 0 0 1-.16.049c-4.473-.781-9.118-.789-13.81-.023-.058.01-.247-.022-.397-.111-.516-.309-1.019-.641-1.521-.972a38.583 38.583 0 0 0-1.767-1.12c-2.862-1.68-6.024-3.301-9.753-3.777l-.73-.094-.389.843a5.217 5.217 0 0 0-.186.425 32 32 0 0 0-1.924 9.085c-.073 1.101-.148 2.24.014 3.377.054.377.009.453-.138.637-1.347 1.679-2.31 3.435-2.945 5.368-1.067 3.246-1.26 6.845-.609 11.324.54 3.747 1.459 6.481 2.977 8.863 3.193 5.008 8.122 7.829 14.651 8.385 3.263.278 6.574.32 9.82.32.698 0 1.393-.002 2.084-.004.911-.003 1.823-.005 2.732-.003 4.18.002 7.514-.542 10.545-1.729 5.396-2.111 8.984-6.043 10.663-11.688.936-3.145 1.355-6.489 1.245-9.941-.122-3.846-1.208-7.205-3.226-9.984zm.065 19.355c-1.516 5.093-4.615 8.494-9.475 10.396-2.79 1.093-5.87 1.61-9.812 1.591-.913-.002-1.827 0-2.741.003-3.861.011-7.853.022-11.729-.309-5.958-.507-10.255-2.95-13.135-7.467-1.359-2.131-2.187-4.621-2.685-8.075-.614-4.22-.45-7.431.53-10.413.559-1.701 1.411-3.252 2.605-4.742.523-.652.684-1.281.557-2.17-.133-.931-.064-1.964.008-3.061a29.793 29.793 0 0 1 1.714-8.197c3.065.542 5.773 1.949 8.253 3.405.57.334 1.124.7 1.677 1.064.527.348 1.055.695 1.597 1.019.54.322 1.192.46 1.747.368 4.468-.729 8.89-.723 13.146.021.49.083 1.075-.033 1.528-.304a216.1 216.1 0 0 0 2.51-1.538 141.69 141.69 0 0 1 3.746-2.266c1.619-.935 3.446-1.332 5.381-1.74a24.428 24.428 0 0 1 1.413 5.541l.016.118c.228 1.681.464 3.419.309 5.03-.154 1.594.459 2.586 1.155 3.544 1.803 2.483 2.734 5.386 2.846 8.872.105 3.24-.286 6.372-1.161 9.31z"/>
  </symbol>
  <symbol id="icon-happy" viewBox="0 0 100 100">
    <path d="M50 98C23.533 98 2 76.467 2 50S23.533 2 50 2s48 21.533 48 48-21.533 48-48 48zm0-90C26.841 8 8 26.841 8 50s18.841 42 42 42 42-18.841 42-42S73.159 8 50 8zm26.684 52.342a2.992 2.992 0 0 0-1.327-4.006 3.015 3.015 0 0 0-4.03 1.304C71.107 58.062 65.778 68 50 68c-15.74 0-21.081-9.889-21.325-10.356a2.992 2.992 0 0 0-4.017-1.327 3 3 0 0 0-1.342 4.025C23.596 60.9 30.371 74 50 74s26.404-13.1 26.684-13.658zM65 44c-3.309 0-6-2.691-6-6s2.691-6 6-6 6 2.691 6 6-2.691 6-6 6zm-30 0c-3.309 0-6-2.691-6-6s2.691-6 6-6 6 2.691 6 6-2.691 6-6 6z"/>
  </symbol>

  <symbol id="icon-question" viewBox="0 0 512 512">
    <path d="M256 0C114.509 0 0 114.496 0 256c0 141.489 114.496 256 256 256 141.491 0 256-114.496 256-256C512 114.509 397.504 0 256 0zm0 476.279c-121.462 0-220.279-98.816-220.279-220.279S134.538 35.721 256 35.721c121.463 0 220.279 98.816 220.279 220.279S377.463 476.279 256 476.279z"/><path d="M248.425 323.924c-14.153 0-25.61 11.794-25.61 25.946 0 13.817 11.12 25.948 25.61 25.948s25.946-12.131 25.946-25.948c0-14.152-11.794-25.946-25.946-25.946zM252.805 127.469c-45.492 0-66.384 26.959-66.384 45.155 0 13.142 11.12 19.208 20.218 19.208 18.197 0 10.784-25.948 45.155-25.948 16.848 0 30.328 7.414 30.328 22.915 0 18.196-18.871 28.642-29.991 38.077-9.773 8.423-22.577 22.24-22.577 51.22 0 17.522 4.718 22.577 18.533 22.577 16.511 0 19.881-7.413 19.881-13.817 0-17.522.337-27.631 18.871-42.121 9.098-7.076 37.74-29.991 37.74-61.666s-28.642-55.6-71.774-55.6z"/>
  </symbol>

  <symbol id="icon-changelog" viewBox="0 0 512 512">
    <svg xmlns="http://www.w3.org/2000/svg" xml:space="preserve" style="fill-rule:evenodd;clip-rule:evenodd;stroke-linejoin:round;stroke-miterlimit:2" viewBox="0 0 20 20"><path d="M13 12v2h3.9c-1.4 2.4-4 4-6.9 4-4.4 0-8-3.6-8-8s3.6-8 8-8c2.3 0 4.3.9 5.8 2.5l1.4-1.4C15.4 1.2 12.8 0 10 0 4.5 0 0 4.5 0 10s4.5 10 10 10c3.3 0 6.2-1.6 8-4v3h2v-7h-7ZM9 9.6l-2.7 2.7 1.4 1.4 3.3-3.3V5H9v4.6Z" style="fill-rule:nonzero"/></svg>
  </symbol>
</svg>