<svg xmlns="http://www.w3.org/2000/svg" viewBox="0 0 512 512" style="enable-background:new 0 0 512 512" xml:space="preserve"><path d="M256 0C114.509 0 0 114.496 0 256c0 141.489 114.496 256 256 256 141.491 0 256-114.496 256-256C512 114.511 397.504 0 256 0zm0 476.279c-121.462 0-220.279-98.816-220.279-220.279S134.538 35.721 256 35.721 476.279 134.537 476.279 256 377.462 476.279 256 476.279z"/><path d="M256.006 213.397c-15.164 0-25.947 6.404-25.947 15.839v128.386c0 8.088 10.783 16.174 25.947 16.174 14.49 0 26.283-8.086 26.283-16.174V229.234c0-9.434-11.793-15.837-26.283-15.837zM256.006 134.208c-15.501 0-27.631 11.12-27.631 23.925 0 12.806 12.131 24.263 27.631 24.263 15.164 0 27.296-11.457 27.296-24.263 0-12.805-12.133-23.925-27.296-23.925z"/></svg>