<svg viewBox="0 0 64 64" xmlns="http://www.w3.org/2000/svg"><path d="M47.526 4.128a193.239 193.239 0 0 0-30.988-.005 13.462 13.462 0 0 0-12.41 12.35 192.439 192.439 0 0 0-.005 30.99 13.462 13.462 0 0 0 12.35 12.41 192.446 192.446 0 0 0 30.99.004 13.461 13.461 0 0 0 12.41-12.35c.416-5.14.627-10.364.627-15.527a193 193 0 0 0-.623-15.462 13.462 13.462 0 0 0-12.35-12.41zm9.356 43.156a10.473 10.473 0 0 1-9.661 9.603 190.049 190.049 0 0 1-30.505-.005 10.474 10.474 0 0 1-9.603-9.66 189.453 189.453 0 0 1 .005-30.506 10.474 10.474 0 0 1 9.66-9.603 189.452 189.452 0 0 1 30.506.005 10.474 10.474 0 0 1 9.603 9.66 189.427 189.427 0 0 1-.005 30.506z"/><path d="M44.75 13.5h-25.5a1.5 1.5 0 0 0-1.5 1.5v17a5.757 5.757 0 0 0 5.75 5.75h2.75v7a5.75 5.75 0 0 0 11.5 0v-7h2.75A5.756 5.756 0 0 0 46.25 32V15a1.5 1.5 0 0 0-1.5-1.5zm-24 3h5.5v2.75a1.5 1.5 0 0 0 3 0V16.5h5.5v2.75a1.5 1.5 0 0 0 3 0V16.5h5.5v9.75h-22.5zM43.25 32a2.753 2.753 0 0 1-2.75 2.75h-4.25a1.5 1.5 0 0 0-1.5 1.5v8.5a2.75 2.75 0 0 1-5.5 0v-8.5a1.5 1.5 0 0 0-1.5-1.5H23.5A2.753 2.753 0 0 1 20.75 32v-2.75h22.5z"/></svg>