<svg xmlns="http://www.w3.org/2000/svg" viewBox="0 0 407.7 407.7"><path d="M405.5 118.021a7.93 7.93 0 0 0-.29-.29l-84.16-74.8a7.994 7.994 0 0 0-2.64-1.6l-60.88-21.76a8 8 0 0 0-10.72 7.12c0 1.76-2.64 42.32-43.2 42.96-40.8-.64-43.36-41.2-43.44-42.96a8 8 0 0 0-10.64-7.12l-60.8 22c-.976.357-1.872.9-2.64 1.6l-83.6 74.56a8 8 0 0 0 0 11.6l66.56 67.28v184a8 8 0 0 0 8 8h253.6a8 8 0 0 0 8-8v-184l66.56-67.28a8 8 0 0 0 .29-11.31zm-67.09 55.79v-37.12a8 8 0 0 0-16 0v235.52H84.73v-235.52a8 8 0 0 0-16 0v37.2l-49.2-49.84 76.16-68.16 50.08-18.08c6.204 31.966 37.147 52.851 69.113 46.647 23.607-4.582 42.065-23.04 46.647-46.647l50.08 18.08 75.92 68.16-49.12 49.76z"/></svg>