<svg xmlns="http://www.w3.org/2000/svg" viewBox="0 0 56 56"><path d="M22.66 0H3.34A3.343 3.343 0 0 0 0 3.34v19.32A3.343 3.343 0 0 0 3.34 26h19.32A3.343 3.343 0 0 0 26 22.66V3.34A3.343 3.343 0 0 0 22.66 0zM24 22.66c0 .739-.601 1.34-1.34 1.34H3.34C2.601 24 2 23.399 2 22.66V3.34C2 2.601 2.601 2 3.34 2h19.32c.739 0 1.34.601 1.34 1.34v19.32zM52.66 0H33.34A3.343 3.343 0 0 0 30 3.34v19.32A3.343 3.343 0 0 0 33.34 26h19.32A3.343 3.343 0 0 0 56 22.66V3.34A3.343 3.343 0 0 0 52.66 0zM54 22.66c0 .739-.601 1.34-1.34 1.34H33.34c-.739 0-1.34-.601-1.34-1.34V3.34c0-.739.601-1.34 1.34-1.34h19.32c.739 0 1.34.601 1.34 1.34v19.32zM22.66 30H3.34A3.343 3.343 0 0 0 0 33.34v19.32A3.343 3.343 0 0 0 3.34 56h19.32A3.343 3.343 0 0 0 26 52.66V33.34A3.343 3.343 0 0 0 22.66 30zM24 52.66c0 .739-.601 1.34-1.34 1.34H3.34C2.601 54 2 53.399 2 52.66V33.34c0-.739.601-1.34 1.34-1.34h19.32c.739 0 1.34.601 1.34 1.34v19.32zM55 42H44V31a1 1 0 1 0-2 0v11H31a1 1 0 1 0 0 2h11v11a1 1 0 1 0 2 0V44h11a1 1 0 1 0 0-2z"/></svg>